<svg version="1" xmlns="http://www.w3.org/2000/svg" width="397.333" height="397.333" viewBox="0 0 298.000000 298.000000"><path d="M217.5 23.7c-2 .5-12.1 5.3-46.5 22.1-10.7 5.2-24.4 11.8-30.5 14.7-33.7 16.1-50.3 24.4-50.9 25.3-.4.6.7 3.8 2.4 7.1 2.4 4.8 2.7 6.3 1.7 7.2-.6.6-8.4 4.6-17.2 8.9l-16 7.7-1.9-3.8c-1.1-2.2-2.5-3.9-3.2-3.9C53.8 109 9 130.7 9 131.5c0 .3.9 2.3 2 4.5l2 3.9-4.5 2C6 143 4 144.5 4 145.2c.1.7 1.4 4 3 7.3 1.5 3.3 2.4 6.2 1.9 6.3-1.6.6-3.9 6-3.9 9.1 0 1.9 1 4.2 2.8 6.2 2.2 2.5 3.6 3.1 7.1 3.2l4.4.2 6.7 14c3.7 7.7 10.8 22.3 15.7 32.5 5 10.2 11.8 24.2 15.2 31.2 6.9 14.4 10.1 17.7 17.2 18.3 4.9.3 5.3.1 31.4-12.5 21.9-10.6 45.9-22.3 66-32 7.7-3.7 23.5-11.4 35-17 11.6-5.5 29.5-14.3 40-19.3 42-20.3 44.7-21.9 46.8-26 3.3-6.4 2.5-10.2-5.4-26.4-11.5-23.7-24.2-49.9-29.9-61.8-16.6-34.9-24.1-49.3-26.8-51.9-3.1-2.9-9.1-4.2-13.7-2.9zm14 27.3l5.5 11-17.5 8.5c-9.6 4.7-17.8 8.5-18.3 8.5-.8 0-10.7-19.6-10.7-21.3 0-.7 33-17.5 34.7-17.6.4-.1 3.3 4.8 6.3 10.9zM192 80.6c0 1.3-32 15.8-35.5 16.1-2.2.2-5.2.8-6.6 1.3-2.5.8-2.8.4-5.9-6.1-1.9-3.8-3.1-7.1-2.8-7.4.3-.3 9.9-5.2 21.4-10.9l20.9-10.3 4.3 8.4c2.3 4.7 4.2 8.7 4.2 8.9zm-16.5 30.5c24.9 5.5 41.7 33 35.4 58-4.6 18.7-19.5 33-38.2 36.9-10.9 2.2-24.8-.4-34.5-6.7-22.1-14.1-29.3-42.3-16.6-65 6.9-12.5 21.8-22.7 34.8-24 2.8-.3 5.3-.7 5.5-.9.6-.5 7 .3 13.6 1.7zM55.6 138.4c4.6 4.6 4.8 10.4.5 14.6-4.9 5-10.5 5.2-15.8.6-2.4-2.1-2.8-3.2-2.8-7.6 0-4.6.4-5.5 3.3-8.1 4.7-4.3 10.2-4.1 14.8.5zm-41.2 29.5c1.4 2.7 2.3 5.1 2 5.4-1.1 1.1-6.3-1.5-6.9-3.5-.8-2.4.2-6.8 1.5-6.8.5 0 2.1 2.2 3.4 4.9z"/><path d="M153.5 120.4c-12.5 3.8-23 14.8-25.1 26.1-.8 4.4-.6 4.3 5-.7 3.1-2.8 12.2-5.8 18.4-6.2 21.6-1.2 42.8 13.8 45.8 32.3.7 4.1.7 4.2 2.3 1.9.9-1.3 2.3-5.1 3.2-8.5 4.8-19-7.3-38.7-27.6-44.7-5.5-1.7-16.7-1.8-22-.2z"/></svg>